# xmcd
#
# Track frame offsets:
#	150
#	17510
#	36461
#	53929
#	76279
#	91302
#	106562
#	132548
#	148899
#	171486
#	193458
#	205052
#	254458
#	266512
#	281848
#	295961
#
# Disc length: 4328
#
# Revision: 2
# Processed by: cddbd v1.5.1PL0 Copyright (c) Steve Scherf et al.
# Submitted via: EasyCDDAExtractor 7.0.0.1
# Normalized: r1:DSETVAR1,TDELIM( - )
#
DISCID=fa10e610
DTITLE=Various Artist - Brown Sugar
DYEAR=2004
DGENRE=Soul
TTITLE0=Jill Scott - Gettin' In The Way
TTITLE1=D'Angelo - Brown Sugar
TTITLE2=Minnie Riperton - Inside My Love
TTITLE3=Mary J. Blige - Time
TTITLE4=Al Wilson - The Snake
TTITLE5=Billy Ocean - Red Light Spells Danger
TTITLE6=Patti Jo - Ain't No Love Lost
TTITLE7=Al Green - Take Me to the River
TTITLE8=Mos Def - Umi Says
TTITLE9=Snoop Dogg - Beautiful
TTITLE10=Flirtations - Nothing But A Heartache
TTITLE11=Millie Jackson - If Loving You Is Wrong
TTITLE12=Jean Knight - Mr. Big Stuff
TTITLE13=Marlena Shaw - Let's Wade In The Water
TTITLE14=Five Stairsteps - Oh Child
TTITLE15=Jocelyn Brown - Somebody Elses Guy
EXTD=
EXTT0=
EXTT1=
EXTT2=
EXTT3=
EXTT4=
EXTT5=
EXTT6=
EXTT7=
EXTT8=
EXTT9=
EXTT10=
EXTT11=
EXTT12=
EXTT13=
EXTT14=
EXTT15=
PLAYORDER=
